<svg width="24" height="24" viewBox="0 0 24 24" fill="none" xmlns="http://www.w3.org/2000/svg">
<g clip-path="url(#clip0_3460_2483)">
<path fill-rule="evenodd" clip-rule="evenodd" d="M21.3333 0H2.66667C1.2 0 0 1.2 0 2.66667V21.3333C0 22.8 1.2 24 2.66667 24H21.3333C22.8 24 24 22.8 24 21.3333V2.66667C24 1.2 22.8 0 21.3333 0ZM16 6.58667C16 6.96 15.72 7.25333 15.3733 7.25333H13.12C12.84 7.25333 12.6267 7.52 12.6267 7.84V10.0933H15.3733C15.5467 10.0933 15.7067 10.1867 15.8 10.32C15.8933 10.4533 15.92 10.6267 15.8667 10.8L15.3067 12.64C15.2267 12.92 14.9867 13.0933 14.72 13.1067H12.6267V19.1067C12.6267 19.48 12.3467 19.7733 12 19.7733H10.12C9.77333 19.7733 9.49333 19.48 9.49333 19.1067V13.1067H8.61333C8.26667 13.1067 7.98667 12.8133 7.98667 12.44V10.7733C7.98667 10.4 8.26667 10.1067 8.61333 10.1067H9.49333V7.85333C9.49333 5.88 10.9467 4.26667 12.7467 4.26667H15.3733C15.72 4.26667 16 4.56 16 4.93333V6.6V6.58667Z" fill="white"/>
</g>
<defs>
<clipPath id="clip0_3460_2483">
<rect width="24" height="24" fill="white"/>
</clipPath>
</defs>
</svg>
