<svg width="24" height="24" viewBox="0 0 24 24" fill="none" xmlns="http://www.w3.org/2000/svg">
<g clip-path="url(#clip0_3460_2485)">
<path fill-rule="evenodd" clip-rule="evenodd" d="M21.3333 0H2.66667C1.2 0 0 1.2 0 2.66667V21.3333C0 22.8 1.2 24 2.66667 24H21.3333C22.8 24 24 22.8 24 21.3333V2.66667C24 1.2 22.8 0 21.3333 0ZM12 19.0267C8.12 19.0267 4.97333 15.88 4.97333 12C4.97333 8.12 8.12 4.97333 12 4.97333C13.8667 4.97333 15.6533 5.70667 16.9733 7.02667C18.2933 8.34667 19.0267 10.1333 19.0267 12C19.0267 15.88 15.88 19.0267 12 19.0267ZM19.4267 6.14667C18.56 6.14667 17.8667 5.45333 17.8667 4.58667C17.8667 3.72 18.56 3.02667 19.4267 3.02667C20.2933 3.02667 20.9867 3.72 20.9867 4.58667C20.9867 5.45333 20.2933 6.14667 19.4267 6.14667Z" fill="white"/>
<path fill-rule="evenodd" clip-rule="evenodd" d="M11.9999 8.22656C9.9199 8.22656 8.22656 9.9199 8.22656 11.9999C8.22656 14.0799 9.9199 15.7732 11.9999 15.7732C14.0799 15.7732 15.7732 14.0799 15.7732 11.9999C15.7732 9.9199 14.0799 8.22656 11.9999 8.22656Z" fill="white"/>
</g>
<defs>
<clipPath id="clip0_3460_2485">
<rect width="24" height="24" fill="white"/>
</clipPath>
</defs>
</svg>
