<svg width="24" height="24" viewBox="0 0 24 24" fill="none" xmlns="http://www.w3.org/2000/svg">
<g clip-path="url(#clip0_3460_2490)">
<path fill-rule="evenodd" clip-rule="evenodd" d="M21.3333 0H2.66667C1.2 0 0 1.2 0 2.66667V21.3333C0 22.8 1.2 24 2.66667 24H21.3333C22.8 24 24 22.8 24 21.3333V2.66667C24 1.2 22.8 0 21.3333 0ZM15.9867 13.1733L10.24 16.72C9.32 17.28 8.14667 16.6267 8.14667 15.5467V8.45333C8.14667 7.37333 9.33333 6.72 10.24 7.28L15.9867 10.8267C16.8533 11.36 16.8533 12.6267 15.9867 13.16V13.1733Z" fill="white"/>
</g>
<defs>
<clipPath id="clip0_3460_2490">
<rect width="24" height="24" fill="white"/>
</clipPath>
</defs>
</svg>
