<svg width="50" height="50" viewBox="0 0 50 50" fill="none" xmlns="http://www.w3.org/2000/svg">
<path d="M41.6762 0H8.32381C3.7267 0 0 3.7267 0 8.32381V41.6762C0 46.2733 3.7267 50 8.32381 50H41.6762C46.2733 50 50 46.2733 50 41.6762V8.32381C50 3.7267 46.2733 0 41.6762 0Z" fill="#FFDB43"/>
<path d="M25.4083 39.2941H24.6274C23.1798 38.8941 21.8655 38.1703 20.6464 37.3322C15.7893 33.9607 12.875 28.6084 12.7988 22.6464C12.9322 20.6084 12.6274 18.3417 12.7988 16.3417C12.8179 16.075 12.8941 15.8274 13.1607 15.6941C16.475 14.7798 19.6369 13.5226 22.6845 11.9417C23.2179 11.656 24.2655 10.9322 24.7607 10.7798C25.1417 10.6655 25.256 10.7798 25.5798 10.9322C25.9417 11.1036 26.2845 11.3703 26.6464 11.5417C29.9226 13.275 33.3131 14.7036 36.8941 15.675C37.1417 15.8084 37.2179 16.056 37.256 16.3226C37.4274 18.3226 37.1226 20.5893 37.256 22.6274C37.1798 28.5893 34.2655 33.9417 29.4083 37.3131C28.1893 38.1512 26.875 38.875 25.4274 39.275L25.4083 39.2941ZM35.9417 16.7226C32.1322 15.6179 28.475 14.0369 25.0464 12.0941C23.1798 13.0845 21.2941 14.075 19.3322 14.8941C17.6179 15.5988 15.8655 16.1893 14.0941 16.7226V23.5417C14.3798 28.5512 16.9512 33.1226 20.9893 36.056C21.8083 36.6464 24.1131 38.1131 25.1036 38.075C25.8655 38.0369 27.5226 37.0845 28.2083 36.6464C32.7226 33.7512 35.675 28.8941 35.9607 23.4845V16.7226H35.9417Z" fill="black"/>
<path d="M30.3605 19.3499C31.9224 19.2546 32.951 20.9118 32.2271 22.2642C29.6367 25.0451 26.8748 27.6927 24.17 30.3784C23.2176 30.9308 22.3986 30.7213 21.5986 30.0356C20.6272 29.1975 19.0652 27.6356 18.2271 26.6642C16.4176 24.5499 18.9129 22.0165 21.0462 23.8451C21.77 24.4546 22.3986 25.2737 23.1033 25.9023L29.1033 19.9023C29.4652 19.5975 29.8843 19.3689 30.3795 19.3308L30.3605 19.3499ZM31.0272 20.7975C30.7986 20.5689 30.3224 20.5308 30.0748 20.7213L23.5795 27.2165C23.2748 27.4832 22.97 27.4832 22.6652 27.2356C21.7891 26.588 20.951 25.3118 20.0748 24.6451C19.2748 24.0356 18.4557 24.9308 19.0462 25.6737C20.2652 26.7023 21.37 28.2451 22.5891 29.2165C22.951 29.5023 23.3319 29.5023 23.6748 29.1975L31.0652 21.807C31.2938 21.5213 31.3129 21.0642 31.0652 20.7975H31.0272Z" fill="black"/>
<path d="M16.2494 20.8168C15.9446 21.1025 15.3732 20.9501 15.2399 20.5501C15.1446 20.2454 15.1637 18.4168 15.2018 18.0168C15.2399 17.6739 15.4113 17.5406 15.7161 17.4073C16.6685 16.9692 17.9256 16.7787 18.897 16.2835C19.6589 16.0549 20.097 16.9501 19.4494 17.4073L16.4589 18.493C16.3637 18.6454 16.497 20.1311 16.4399 20.4739C16.4399 20.5692 16.3256 20.7596 16.2494 20.8168Z" fill="black"/>
<path d="M31.7528 29.9987C32.1909 29.9416 32.4767 30.3225 32.4386 30.7416C32.4005 31.0083 31.8671 31.6749 31.6767 31.9416C30.9528 32.894 30.0005 33.8844 29.0671 34.6273C28.6862 34.913 28.1528 35.4083 27.7719 34.8178C27.3147 34.113 28.3243 33.6749 28.7624 33.2749C29.81 32.3035 30.3814 31.4083 31.2767 30.3797C31.41 30.2273 31.5624 30.0559 31.7719 30.0178L31.7528 29.9987Z" fill="black"/>
<path d="M26.6265 34.8565C27.5218 34.647 27.6932 35.9042 26.9313 36.0565C26.0361 36.247 25.8837 35.028 26.6265 34.8565Z" fill="black"/>
<path d="M20.7226 15.5599C21.5607 15.3884 21.7512 16.6265 20.9703 16.7599C20.1131 16.9123 19.9607 15.7123 20.7226 15.5599Z" fill="black"/>
</svg>
