<svg width="50" height="50" viewBox="0 0 50 50" fill="none" xmlns="http://www.w3.org/2000/svg">
<path d="M41.6762 0H8.3238C3.72669 0 0 3.7267 0 8.32381V41.6762C0 46.2733 3.72669 50 8.3238 50H41.6762C46.2733 50 50 46.2733 50 41.6762V8.32381C50 3.7267 46.2733 0 41.6762 0Z" fill="#FFDB43"/>
<path d="M26.7799 37.5989L23.0656 37.5227C22.5894 37.2942 22.2846 36.8942 22.1513 36.3037L21.637 34.1894C21.3513 34.0942 21.0846 33.9799 20.818 33.8465C20.3037 34.1513 19.7894 34.4561 19.2751 34.7608C18.5132 35.218 17.8656 35.1227 17.237 34.5132C16.6465 33.9418 16.0751 33.3513 15.5037 32.7799C14.8751 32.1513 14.7989 31.5037 15.2561 30.7418C15.5799 30.1894 15.8846 29.6942 16.1704 29.218C16.037 28.9513 15.9227 28.6656 15.8275 28.3799L13.7132 27.8656C13.1227 27.7323 12.7227 27.4084 12.4942 26.9322L12.418 26.6275L12.4942 23.0846C12.7227 22.6084 13.1227 22.3037 13.7132 22.1513L15.8275 21.637C15.9037 21.4084 15.9989 21.1989 16.0942 20.9894C15.7323 20.418 15.4084 19.8465 15.0656 19.2561C14.5894 18.437 14.6656 17.8084 15.2942 17.1799L17.0084 15.4656C17.6561 14.818 18.3037 14.7418 19.1037 15.218L19.5037 15.4656C19.9227 15.7132 20.3418 15.9608 20.7608 16.2275C21.0656 16.0751 21.3513 15.9418 21.6561 15.8465C21.8275 15.1037 22.018 14.3608 22.2084 13.618C22.418 12.818 22.9322 12.418 23.7513 12.418H25.5989H26.2084C27.1799 12.418 27.6751 12.7989 27.9037 13.7322L28.418 15.8275C28.6846 15.9227 28.9513 16.037 29.218 16.1704C29.6751 15.9037 30.1323 15.618 30.5704 15.3513L30.7989 15.218C31.5799 14.7608 32.2275 14.837 32.8751 15.4656L34.5703 17.1608C35.218 17.8084 35.2942 18.4561 34.837 19.237L34.7227 19.4084C34.437 19.8846 34.1513 20.3608 33.8656 20.837C33.9989 21.1037 34.1132 21.3703 34.2084 21.637C34.9322 21.8084 35.6751 21.9989 36.3989 22.1703C37.237 22.3799 37.637 22.8942 37.637 23.7513V25.3894V26.2084C37.637 27.1227 37.237 27.637 36.3418 27.8656L34.2275 28.3799C34.1323 28.6465 34.018 28.8942 33.9037 29.1608C34.2275 29.6942 34.5513 30.2275 34.8751 30.7608C35.3132 31.5037 35.237 32.1513 34.6275 32.7608L32.8751 34.5132C32.2465 35.1418 31.5989 35.218 30.837 34.7608L30.5704 34.5894C30.1323 34.3418 29.7132 34.0751 29.2751 33.8084C28.9894 33.9418 28.7037 34.0751 28.418 34.1703L27.9037 36.2846C27.7703 36.8751 27.4466 37.2751 26.9704 37.5037L26.818 37.5799L26.7799 37.5989ZM23.618 36.1132H26.3608C26.3608 36.1132 26.3989 36.037 26.418 35.9608L26.9704 33.6942C27.1037 33.1418 27.4656 32.9323 27.7513 32.837C28.0942 32.7227 28.3989 32.5894 28.7227 32.418C28.9894 32.2846 29.3894 32.1703 29.8656 32.4561C30.3418 32.7418 30.818 33.0275 31.2942 33.3132L31.5608 33.4846C31.5608 33.4846 31.6751 33.5418 31.6942 33.5608C31.6942 33.5608 31.7323 33.5227 31.7894 33.4656L34.1894 31.1418L33.5608 31.5227C33.218 30.9323 32.8561 30.3418 32.5132 29.7703C32.2465 29.3323 32.3418 28.9323 32.4561 28.6846C32.6084 28.3989 32.7418 28.0942 32.837 27.7703C32.9322 27.4846 33.1418 27.1037 33.6942 26.9894L35.9608 26.437C35.9608 26.437 36.1132 26.3989 36.1323 26.3799C36.1323 26.3608 36.1323 26.3037 36.1323 26.2084V23.7513L36.018 23.5989C35.2561 23.4084 34.4942 23.218 33.7132 23.0275C33.1418 22.8942 32.9322 22.5132 32.837 22.2275C32.7418 21.9227 32.6275 21.637 32.4751 21.3513C32.3227 21.0656 32.2085 20.6465 32.5323 20.1513C32.837 19.6561 33.1418 19.1418 33.4465 18.6465L33.5608 18.4751C33.5608 18.4751 33.637 18.3418 33.637 18.3227C33.637 18.3227 33.5799 18.2656 33.5227 18.2084L31.8275 16.5132C31.8275 16.5132 31.7132 16.418 31.6942 16.3989C31.6942 16.3989 31.637 16.437 31.5418 16.4751L31.3132 16.6084C30.818 16.9132 30.3037 17.1989 29.8084 17.5227C29.3513 17.7894 28.9513 17.6942 28.7037 17.5608C28.3989 17.4084 28.0751 17.2751 27.7513 17.1608C27.4846 17.0846 27.1227 16.8561 27.0084 16.3418L26.4561 14.0751C26.437 13.9799 26.418 13.9227 26.3989 13.8846C26.3799 13.8846 26.3037 13.8846 26.2084 13.8846H23.7513C23.4465 14.7418 23.237 15.5227 23.0656 16.3227C22.9322 16.8751 22.5704 17.0846 22.2846 17.1799C21.9418 17.2942 21.618 17.4275 21.3132 17.5989C20.9132 17.8084 20.5132 17.7894 20.1323 17.5608C19.6751 17.2751 19.218 17.0084 18.7608 16.7227L18.3608 16.4751C18.3608 16.4751 18.2275 16.3989 18.1894 16.3799C18.1894 16.3799 18.1323 16.437 18.0751 16.4942L16.3608 18.2084L16.3227 18.418C16.7227 19.0846 17.0846 19.6942 17.4465 20.2846C17.7513 20.7799 17.637 21.237 17.5037 21.5037C17.3894 21.7322 17.2942 21.9608 17.218 22.2084C17.1227 22.4942 16.9132 22.8751 16.3608 23.0084L14.0942 23.5608C14.0942 23.5608 13.9799 23.5989 13.9418 23.618V26.3608C13.9418 26.3608 14.018 26.3989 14.0942 26.418L16.3418 26.9703C16.9132 27.1037 17.1418 27.4846 17.237 27.7894C17.3323 28.1132 17.4656 28.418 17.618 28.7037C17.7513 28.9703 17.8465 29.3703 17.5608 29.8465C17.237 30.3608 16.9322 30.8941 16.6084 31.4275L16.4942 31.6561C17.1799 32.3037 17.7513 32.8751 18.3227 33.4465C18.418 33.5418 18.4751 33.5608 18.4751 33.5608C19.1227 33.1418 19.6942 32.7989 20.2465 32.4561C20.6084 32.2275 20.9894 32.2275 21.3513 32.418C21.6561 32.5703 21.9799 32.7227 22.3227 32.818C22.5894 32.9132 22.9513 33.1227 23.0656 33.637L23.618 35.9227C23.618 35.9227 23.6561 36.037 23.6751 36.0751L23.618 36.1132ZM24.9894 30.5703C23.4846 30.5703 22.0942 29.9989 21.0465 28.9703C19.9989 27.9227 19.4275 26.5323 19.4275 25.0084C19.4275 23.5037 19.9989 22.1132 21.0275 21.0656C22.0751 20.018 23.4656 19.4465 24.9894 19.4465C28.0561 19.4465 30.4942 21.8846 30.5513 24.9894C30.4942 28.1323 28.0561 30.5703 24.9894 30.5703ZM24.9894 20.9132C23.8846 20.9132 22.837 21.3322 22.0751 22.1132C21.3132 22.8751 20.8942 23.9037 20.8942 25.0084C20.8942 26.1132 21.3132 27.1608 22.0942 27.9227C22.8561 28.6846 23.8846 29.1037 24.9894 29.1037C27.237 29.1037 29.0465 27.2942 29.0846 25.0084C29.0275 22.7227 27.237 20.9132 24.9894 20.9132Z" fill="#151515"/>
</svg>
