<svg width="50" height="50" viewBox="0 0 50 50" fill="none" xmlns="http://www.w3.org/2000/svg">
<path d="M41.6762 0H8.32381C3.72669 0 0 3.7267 0 8.32381V41.6762C0 46.2733 3.72669 50 8.32381 50H41.6762C46.2733 50 50 46.2733 50 41.6762V8.32381C50 3.7267 46.2733 0 41.6762 0Z" fill="#FFDB43"/>
<path d="M39.9093 38.0968H11.395C10.2712 38.0968 9.28073 37.4682 8.72835 36.4206C8.11883 35.2587 8.19502 33.8492 8.93787 32.7825L22.6331 12.8587C23.2045 12.0206 24.0807 11.5444 25.0522 11.5254C25.9855 11.5254 26.8998 11.9635 27.4903 12.7635L42.3093 32.6873C43.1093 33.754 43.2236 35.1635 42.6141 36.3635C42.0617 37.4492 41.0522 38.0968 39.9093 38.0968ZM23.8141 13.6778L10.1188 33.6016C9.60454 34.3635 9.71883 35.2016 10.0045 35.7349C10.1379 36.0016 10.5569 36.6302 11.376 36.6302H39.8902C40.7283 36.6302 41.1474 35.9825 41.2807 35.6968C41.6236 34.992 41.5665 34.154 41.1093 33.5254L26.2902 13.6016C25.9664 13.1825 25.4903 12.9349 25.0331 12.954C24.5569 12.954 24.0998 13.2206 23.795 13.6587L23.8141 13.6778Z" fill="#151515"/>
<path d="M19.4329 32.2288L9.45193 23.505L12.9948 18.6098L8.32812 14.0764L9.3567 13.0098L14.9567 18.4574L11.4329 23.2764L20.4043 31.105L19.4329 32.2288Z" fill="#151515"/>
<path d="M20.6542 32.4013H14.8828V30.9346H19.1685V26.7441H20.6542V32.4013Z" fill="#151515"/>
<path d="M25.2963 33.2199C24.8582 33.2199 24.4963 33.0675 24.1915 32.7628C23.8868 32.458 23.7344 32.0961 23.7344 31.658C23.7344 31.2199 23.8868 30.858 24.1915 30.5532C24.4963 30.2485 24.8582 30.0961 25.2963 30.0961C25.7344 30.0961 26.0772 30.2485 26.401 30.5532C26.7249 30.858 26.8772 31.2199 26.8772 31.658C26.8772 31.9437 26.801 32.2104 26.6677 32.439C26.5153 32.6675 26.3248 32.858 26.0963 33.0104C25.8677 33.1628 25.601 33.2199 25.3153 33.2199H25.2963ZM26.6867 18.4961L26.4582 28.8009H24.1725L23.9439 18.4961H26.7058H26.6867Z" fill="#151515"/>
</svg>
