<svg width="47" height="47" viewBox="0 0 47 47" fill="none" xmlns="http://www.w3.org/2000/svg">
<g clip-path="url(#clip0_3353_216)">
<path d="M23.5054 46.3937C36.1463 46.3937 46.3937 36.1463 46.3937 23.5054C46.3937 10.8646 36.1463 0.617188 23.5054 0.617188C10.8646 0.617188 0.617188 10.8646 0.617188 23.5054C0.617188 36.1463 10.8646 46.3937 23.5054 46.3937Z" fill="#F4F4F4" stroke="black" stroke-miterlimit="10"/>
<path d="M20.451 33.8005C26.1367 33.8005 30.7458 29.1913 30.7458 23.5057C30.7458 17.8201 26.1367 13.2109 20.451 13.2109C14.7654 13.2109 10.1562 17.8201 10.1562 23.5057C10.1562 29.1913 14.7654 33.8005 20.451 33.8005Z" fill="#FFDB43"/>
<path d="M10.912 33.8005C16.5976 33.8005 21.2067 29.1913 21.2067 23.5057C21.2067 17.8201 16.5976 13.2109 10.912 13.2109C5.22631 13.2109 0.617188 17.8201 0.617188 23.5057C0.617188 29.1913 5.22631 33.8005 10.912 33.8005Z" fill="#F4F4F4" stroke="black" stroke-miterlimit="10"/>
</g>
<defs>
<clipPath id="clip0_3353_216">
<rect width="47" height="47" fill="white"/>
</clipPath>
</defs>
</svg>
