<svg width="50" height="50" viewBox="0 0 50 50" fill="none" xmlns="http://www.w3.org/2000/svg">
<path d="M41.6762 0H8.3238C3.72669 0 0 3.7267 0 8.32381V41.6762C0 46.2733 3.72669 50 8.3238 50H41.6762C46.2733 50 50 46.2733 50 41.6762V8.32381C50 3.7267 46.2733 0 41.6762 0Z" fill="#FFDB43"/>
<path d="M26.3443 38.15V19.4452C26.3443 19.0452 26.6681 18.7024 27.0871 18.7024H28.5919L24.9728 13.6357L21.3538 18.7024H22.8586C23.2586 18.7024 23.6014 19.0262 23.6014 19.4452V38.15H22.1157V20.1881H19.9252C19.6395 20.1881 19.3919 20.0357 19.2776 19.7881C19.1443 19.5405 19.1633 19.2548 19.3347 19.0262L24.3824 11.9405C24.6681 11.5595 25.3157 11.5595 25.5824 11.9405L30.63 19.0262C30.7824 19.2548 30.8205 19.5405 30.6871 19.7881C30.5538 20.0357 30.3062 20.1881 30.0395 20.1881H27.849V38.15H26.3443Z" fill="#151515"/>
<path d="M19.0142 38.1483H17.5285V31.8626H16.138V33.7674C16.138 34.034 15.9856 34.3007 15.738 34.415C15.4904 34.5483 15.2047 34.5293 14.9761 34.3578L8.27135 29.6912C8.08087 29.5579 7.94755 29.3293 7.94755 29.0817C7.94755 28.834 8.06183 28.6055 8.27135 28.4721L14.9761 23.8055C15.2047 23.6531 15.4904 23.634 15.738 23.7483C15.9856 23.8817 16.138 24.1293 16.138 24.3959V26.3007H22.8618V27.7864H15.3952C14.9952 27.7864 14.6523 27.4626 14.6523 27.0436V25.8245L9.98564 29.0817L14.6523 32.3388V31.1198C14.6523 30.7198 14.9761 30.3769 15.3952 30.3769H18.2523C18.6523 30.3769 18.9952 30.7007 18.9952 31.1198V38.1483H19.0142Z" fill="#151515"/>
<path d="M32.4443 38.1512H30.9586V31.1226C30.9586 30.7226 31.2824 30.3798 31.7014 30.3798H34.5586C34.9586 30.3798 35.3014 30.7036 35.3014 31.1226V32.3417L39.9681 29.0845L35.3014 25.8274V27.0464C35.3014 27.4464 34.9776 27.7893 34.5586 27.7893H27.0919V26.3036H33.8157V24.3988C33.8157 24.1322 33.9681 23.8655 34.2157 23.7512C34.4633 23.6179 34.749 23.6369 34.9776 23.8083L41.6824 28.475C41.8728 28.6083 42.0062 28.8369 42.0062 29.0845C42.0062 29.3321 41.8919 29.5607 41.6824 29.6941L34.9776 34.3607C34.749 34.5131 34.4633 34.5321 34.2157 34.4179C33.9681 34.2845 33.8157 34.0369 33.8157 33.7702V31.8655H32.4252V38.1512H32.4443Z" fill="#151515"/>
<path d="M38.9955 37.4062H10.6336V38.892H38.9955V37.4062Z" fill="#151515"/>
</svg>
