<svg width="51" height="50" viewBox="0 0 51 50" fill="none" xmlns="http://www.w3.org/2000/svg">
<path d="M42.0411 0H8.00924C3.58585 0 0 3.58225 0 8.00119V41.9988C0 46.4177 3.58585 50 8.00924 50H42.0411C46.4644 50 50.0503 46.4177 50.0503 41.9988V8.00119C50.0503 3.58225 46.4644 0 42.0411 0Z" fill="#FFDB43"/>
<path d="M9.82422 11.3027L15.8386 13.2659L19.0244 30.0416C19.3519 31.737 20.8406 32.9863 22.5675 32.9863H33.6733" stroke="black" stroke-width="1.5" stroke-miterlimit="10"/>
<path d="M18.9358 29.7154H35.1924L39.3906 18.3828H16.8516" stroke="black" stroke-width="1.5" stroke-miterlimit="10"/>
<path d="M37.8997 22.3965H17.5938" stroke="black" stroke-width="1.5" stroke-miterlimit="10"/>
<path d="M23.0742 22.3965L25.0095 29.7136" stroke="black" stroke-width="1.5" stroke-miterlimit="10"/>
<path d="M32.3343 22.3965L30.4883 29.7136" stroke="black" stroke-width="1.5" stroke-miterlimit="10"/>
<path d="M33.6747 38.6972C35.2533 38.6972 36.533 37.4188 36.533 35.8418C36.533 34.2648 35.2533 32.9863 33.6747 32.9863C32.0961 32.9863 30.8164 34.2648 30.8164 35.8418C30.8164 37.4188 32.0961 38.6972 33.6747 38.6972Z" stroke="black" stroke-width="1.5" stroke-miterlimit="10"/>
<path d="M22.1786 38.6972C23.7572 38.6972 25.037 37.4188 25.037 35.8418C25.037 34.2648 23.7572 32.9863 22.1786 32.9863C20.6 32.9863 19.3203 34.2648 19.3203 35.8418C19.3203 37.4188 20.6 38.6972 22.1786 38.6972Z" stroke="black" stroke-width="1.5" stroke-miterlimit="10"/>
</svg>
