<svg width="51" height="50" viewBox="0 0 51 50" fill="none" xmlns="http://www.w3.org/2000/svg">
<path d="M42.0411 0H8.00924C3.58586 0 0 3.58225 0 8.00119V41.9988C0 46.4177 3.58586 50 8.00924 50H42.0411C46.4645 50 50.0503 46.4177 50.0503 41.9988V8.00119C50.0503 3.58225 46.4645 0 42.0411 0Z" fill="#FFDB43"/>
<path d="M32.3344 16.1504H17.745C16.9064 16.1504 16.2266 16.8296 16.2266 17.6673V32.242C16.2266 33.0798 16.9064 33.759 17.745 33.759H32.3344C33.173 33.759 33.8528 33.0798 33.8528 32.242V17.6673C33.8528 16.8296 33.173 16.1504 32.3344 16.1504Z" stroke="black" stroke-width="1.5" stroke-miterlimit="10"/>
<path d="M28.9431 20.2246H21.1125C20.6685 20.2246 20.3086 20.5842 20.3086 21.0277V28.8504C20.3086 29.294 20.6685 29.6535 21.1125 29.6535H28.9431C29.3871 29.6535 29.747 29.294 29.747 28.8504V21.0277C29.747 20.5842 29.3871 20.2246 28.9431 20.2246Z" stroke="black" stroke-width="1.5" stroke-miterlimit="10"/>
<path d="M21.1406 16.1502V11.748" stroke="black" stroke-width="1.5" stroke-miterlimit="10"/>
<path d="M25.043 16.1502V11.748" stroke="black" stroke-width="1.5" stroke-miterlimit="10"/>
<path d="M28.9414 16.1502V11.748" stroke="black" stroke-width="1.5" stroke-miterlimit="10"/>
<path d="M21.1406 38.2498V33.8477" stroke="black" stroke-width="1.5" stroke-miterlimit="10"/>
<path d="M25.043 38.2498V33.8477" stroke="black" stroke-width="1.5" stroke-miterlimit="10"/>
<path d="M28.9414 38.2498V33.8477" stroke="black" stroke-width="1.5" stroke-miterlimit="10"/>
<path d="M33.8828 21.1172H38.2894" stroke="black" stroke-width="1.5" stroke-miterlimit="10"/>
<path d="M33.8828 25.0137H38.2894" stroke="black" stroke-width="1.5" stroke-miterlimit="10"/>
<path d="M33.8828 28.9102H38.2894" stroke="black" stroke-width="1.5" stroke-miterlimit="10"/>
<path d="M11.7617 21.1172H16.1683" stroke="black" stroke-width="1.5" stroke-miterlimit="10"/>
<path d="M11.7617 25.0137H16.1683" stroke="black" stroke-width="1.5" stroke-miterlimit="10"/>
<path d="M11.7617 28.9102H16.1683" stroke="black" stroke-width="1.5" stroke-miterlimit="10"/>
</svg>
