<svg width="51" height="50" viewBox="0 0 51 50" fill="none" xmlns="http://www.w3.org/2000/svg">
<path d="M42.0411 0H8.00924C3.58586 0 0 3.58225 0 8.00119V41.9988C0 46.4177 3.58586 50 8.00924 50H42.0411C46.4645 50 50.0503 46.4177 50.0503 41.9988V8.00119C50.0503 3.58225 46.4645 0 42.0411 0Z" fill="#FFDB43"/>
<path d="M17.0597 30.457C16.3451 30.457 15.6603 30.7247 15.1839 31.2006C14.2907 32.093 13.7548 35.0674 13.6357 35.6325L13.457 36.6736L14.4991 36.4951C15.3328 36.3464 18.1018 35.811 18.9355 34.9484C19.4416 34.4428 19.7096 33.7884 19.7096 33.0745C19.7096 32.3607 19.4416 31.7063 18.9355 31.2006C18.4591 30.7247 17.7743 30.457 17.0597 30.457Z" stroke="black" stroke-width="1.5" stroke-miterlimit="10"/>
<path d="M21.6449 19.8691C20.1264 19.8989 18.608 20.2856 17.2383 20.9697C14.9457 22.1297 13.457 24.6282 13.457 27.3349V28.0785H18.5186C19.4714 28.0785 20.3646 28.4652 21.0494 29.1196C21.7342 29.8037 22.0915 30.696 22.0915 31.6478V36.7044H22.8359C25.5453 36.7044 28.0464 35.2171 29.2075 32.9268C29.8924 31.5586 30.2794 30.0417 30.3092 28.5247" stroke="black" stroke-width="1.5" stroke-miterlimit="10"/>
<path d="M28.6133 18.916C27.1543 18.916 25.9336 20.1058 25.9336 21.593C25.9336 23.0802 27.1246 24.27 28.6133 24.27C30.102 24.27 31.2929 23.0802 31.2929 21.593C31.2929 20.1058 30.102 18.916 28.6133 18.916Z" stroke="black" stroke-width="1.5" stroke-miterlimit="10"/>
<path d="M18.5195 28.078C18.5195 19.6009 28.4343 12.4028 34.2105 13.1762C35.461 13.3547 36.5329 14.1875 36.6817 15.4368C37.3666 20.3743 31.1735 31.6473 22.0627 31.6473" stroke="black" stroke-width="1.5" stroke-miterlimit="10"/>
</svg>
