<svg width="51" height="50" viewBox="0 0 51 50" fill="none" xmlns="http://www.w3.org/2000/svg">
<path d="M42.0411 0H8.00925C3.58587 0 0 3.58225 0 8.00119V41.9988C0 46.4177 3.58587 50 8.00925 50H42.0411C46.4645 50 50.0503 46.4177 50.0503 41.9988V8.00119C50.0503 3.58225 46.4645 0 42.0411 0Z" fill="#FFDB43"/>
<path d="M18.9357 35.0382C17.3577 35.871 15.8988 35.0382 15.6308 33.432C15.0055 33.7294 14.3505 33.7889 13.7253 33.4915C12.9214 33.1346 12.4747 32.3612 12.5641 31.4094C12.5641 31.1714 12.5641 31.1417 12.2961 31.1417C10.6883 31.1417 9.73553 29.6842 10.3608 28.197C10.4203 28.0186 10.4203 27.9293 10.3012 27.7806C10.0928 27.5724 9.8844 27.3344 9.70575 27.0965C9.46756 26.8288 9.31869 26.4124 8.87208 26.918C8.69344 27.0965 8.39568 27.037 8.18727 26.918C7.26427 26.4124 6.3115 25.9067 5.3885 25.3713C4.94189 25.1036 4.88234 24.7764 5.18008 24.241C7.14518 20.6717 9.11026 17.1024 11.0456 13.5331C11.1944 13.2654 11.3135 13.0275 11.4624 12.7598C11.7304 12.3136 12.0877 12.1946 12.5343 12.4326C13.4573 12.9383 14.3505 13.4142 15.2735 13.9198C15.7499 14.1875 15.8392 14.5444 15.601 15.0203C15.214 15.764 15.214 15.7937 15.9881 16.0911C16.9111 16.4481 17.9234 16.567 18.8762 16.8645C19.0251 16.924 19.1144 16.8347 19.2037 16.7158C19.3526 16.4778 19.5312 16.2696 19.6801 16.0614C20.0671 15.5557 20.5435 15.2583 21.1688 15.1691C23.1339 14.8716 25.099 14.6337 27.0938 14.6337C28.791 14.6337 30.4583 14.8121 32.0661 15.4963C32.87 15.8532 33.7037 15.8234 34.5374 15.5855C34.7458 15.526 34.8351 15.4665 34.6862 15.1988C34.329 14.5147 34.4183 14.2767 35.1031 13.8901C35.907 13.4439 36.7109 12.9977 37.5446 12.5516C38.14 12.2244 38.4676 12.3136 38.7951 12.9383C40.8793 16.7158 42.9337 20.4635 45.0179 24.241C45.3454 24.8657 45.2561 25.1631 44.6308 25.4903C43.7971 25.9365 42.9635 26.4124 42.1298 26.8585C41.5641 27.1857 41.2365 27.0667 40.909 26.5314C40.5517 25.877 40.5518 25.877 39.9265 26.3231C39.1524 26.8883 38.3782 27.4237 37.5446 27.8996C37.3659 28.0186 37.3064 28.1375 37.2766 28.3457C37.2171 29.4463 36.6513 30.2196 35.639 30.6361C35.4008 30.7253 35.3413 30.8443 35.3711 31.0822C35.3711 32.4207 34.5969 33.4618 33.2869 33.7592C33.0784 33.8187 33.0189 33.9079 32.9593 34.0864C32.5723 35.3059 31.6493 36.0198 30.3988 36.0792C30.1606 36.0792 30.0415 36.1387 29.9224 36.3469C29.2971 37.2988 28.3741 37.7152 27.2725 37.7747C25.7242 37.8639 24.2951 37.4177 22.8957 36.8526C22.6277 36.7336 22.4193 36.7336 22.1513 36.9121C20.7817 37.7449 19.1739 36.8526 19.025 35.1572L18.9357 35.0382ZM28.6123 35.5438C27.5702 35.0977 26.5579 34.6218 25.5456 34.1756C25.3074 34.0566 25.0692 33.9377 25.0097 33.6402C24.9501 33.3725 25.0097 33.1048 25.2479 32.9264C25.486 32.7479 25.754 32.7181 26.022 32.8669C27.2129 33.4023 28.4337 33.9377 29.6247 34.4731C30.369 34.8002 31.2324 34.4731 31.5004 33.6997C31.5897 33.4618 31.56 33.313 31.3218 33.1941C30.4286 32.7479 29.5651 32.272 28.6719 31.7961C28.1359 31.4986 27.5702 31.2309 27.0343 30.9038C26.6175 30.6658 26.4686 30.3089 26.677 29.9222C26.8556 29.5653 27.2427 29.4463 27.6893 29.6545C27.7787 29.6842 27.868 29.7437 27.9573 29.8032C29.446 30.6063 30.9645 31.4094 32.4532 32.2125C32.7212 32.3612 32.9296 32.3315 33.1678 32.2125C33.4953 32.034 33.7037 31.7961 33.8228 31.4391C34.0014 30.9037 33.9121 30.6955 33.3762 30.4873C33.1082 30.3684 32.8403 30.2494 32.6021 30.1007C31.5004 29.476 30.3988 28.8217 29.2971 28.1673C28.7017 27.8104 28.1061 27.4832 27.5107 27.1262C27.1534 26.918 27.0641 26.5314 27.2725 26.1744C27.4511 25.8472 27.8382 25.7283 28.2253 25.9067C28.3444 25.9662 28.4635 26.0257 28.5528 26.0852C30.1606 27.0073 31.7386 27.9591 33.3464 28.8811C33.6144 29.0299 33.8823 29.1786 34.1801 29.2381C34.7756 29.3868 35.3413 29.1786 35.639 28.7324C35.9368 28.316 35.8772 27.9293 35.4306 27.3642C34.984 26.7693 34.3885 26.2637 33.793 25.8175C31.2324 23.8246 28.4039 22.2779 25.5754 20.761C25.3967 20.6717 25.2478 20.642 25.0692 20.7015C24.5928 20.7907 24.0867 20.7907 23.6103 20.7015C23.4018 20.6717 23.2828 20.7015 23.1339 20.88C21.5261 22.6944 19.5014 23.5272 17.06 23.4082C16.4645 23.4082 15.9881 23.1405 15.7201 22.6051C15.4521 22.0697 15.5713 21.5641 15.8988 21.0882C16.524 20.2256 17.1791 19.3333 17.8043 18.4409C17.8936 18.322 18.0425 18.203 18.0425 18.0245C16.9409 17.7271 15.7797 17.6081 14.7673 17.0132C14.4994 16.8645 14.4101 16.924 14.2612 17.1917C13.0702 19.363 11.8793 21.5046 10.7181 23.6759C10.4501 24.1518 9.91417 24.6575 10.0035 25.1631C10.0928 25.639 10.6883 26.0257 11.0158 26.5016C11.254 26.8288 11.4029 26.7693 11.5815 26.4719C12.5045 25.1631 14.0825 25.3118 14.8864 26.2042C15.1544 26.5016 15.3033 26.8288 15.3926 27.2155C16.4049 26.2339 17.2386 26.0257 18.1616 26.5016C18.5487 26.7098 18.8464 27.0073 19.0548 27.3642C19.3228 27.8698 19.3228 28.435 19.2037 29.0001C20.8115 28.9406 21.9727 30.2494 21.3772 31.9745C23.4018 31.8853 24.444 33.8187 23.3423 35.4249C24.5333 35.871 25.6945 36.2875 27.0045 36.228C27.6 36.228 28.1657 36.0198 28.5825 35.4844L28.6123 35.5438ZM17.0004 22.04C19.2632 22.159 21.0497 21.3856 22.3598 19.6604C22.717 19.1845 22.8659 19.125 23.4614 19.3035C23.8782 19.4225 24.2951 19.5415 24.7119 19.4225C25.3074 19.244 25.8433 19.4225 26.3793 19.6604C28.6719 20.7312 30.7858 22.04 32.87 23.4677C34.1801 24.3898 35.5199 25.3118 36.562 26.5314C36.7109 26.7098 36.83 26.6206 36.9491 26.5314C37.8423 25.996 38.676 25.4308 39.5097 24.8062C39.7479 24.6277 39.8074 24.479 39.6288 24.2113C38.2889 21.802 36.9491 19.363 35.6092 16.924C35.4604 16.686 35.371 16.6265 35.0733 16.7158C33.793 17.2214 32.5127 17.1619 31.2622 16.6265C30.4285 16.2696 29.5353 16.0911 28.6123 16.0019C26.1708 15.764 23.7591 16.0911 21.3474 16.4481C21.0795 16.4778 20.8413 16.6265 20.6924 16.8347C19.4717 18.5302 18.2212 20.2256 16.9409 22.0102L17.0004 22.04ZM43.4398 24.3898C43.4398 24.3898 43.3803 24.3005 43.3803 24.2708C41.5343 20.9097 39.6883 17.5486 37.8423 14.1875C37.7232 13.9793 37.6339 14.009 37.485 14.0983C37.098 14.3362 36.7109 14.5444 36.2941 14.7527C36.0559 14.8716 36.0559 14.9609 36.175 15.1691C36.6216 15.9424 37.0384 16.7158 37.4552 17.4891C38.8546 20.0174 40.2242 22.5456 41.6236 25.0739C41.7427 25.3118 41.8618 25.4308 42.1298 25.2226C42.4871 24.9847 42.8741 24.8062 43.2612 24.598C43.3505 24.5682 43.4696 24.5385 43.4398 24.3898ZM13.9932 14.9311C13.9932 14.9311 13.8741 14.8121 13.8146 14.7527C13.3977 14.5147 13.0107 14.3065 12.5938 14.0685C12.3854 13.9496 12.3259 13.9793 12.2068 14.1875C10.3905 17.5189 8.54455 20.88 6.69856 24.2113C6.57946 24.4195 6.63901 24.5087 6.81766 24.598C7.20472 24.8062 7.59179 24.9847 7.94908 25.2226C8.18727 25.3713 8.27659 25.3118 8.39568 25.1036C10.2119 21.7723 12.0281 18.4707 13.8444 15.1691C13.8741 15.0798 13.9337 15.0203 13.9635 14.9311H13.9932ZM14.6482 32.3017C14.8864 32.3017 15.0651 32.1828 15.214 31.9745C16.0476 30.9632 16.8515 29.9519 17.6852 28.9406C18.0127 28.5242 18.0127 28.1078 17.6852 27.8401C17.3577 27.5724 16.9706 27.6319 16.6431 28.0483C16.1667 28.6432 15.6606 29.2381 15.1842 29.833C14.8269 30.2791 14.4398 30.7253 14.0826 31.1714C13.9039 31.4094 13.8741 31.6771 14.023 31.9448C14.1719 32.1828 14.3505 32.3017 14.6482 32.272V32.3017ZM17.7448 33.9674C17.9234 33.9674 18.1021 33.9079 18.2212 33.7889C18.8464 33.0453 19.4717 32.272 20.0671 31.4986C20.3053 31.2012 20.216 30.8443 19.9183 30.6063C19.6205 30.3684 19.2632 30.3684 19.025 30.6361C18.37 31.3797 17.7745 32.153 17.1493 32.8966C16.9706 33.1048 17.0004 33.3725 17.1493 33.5807C17.2982 33.8187 17.4768 33.9377 17.7448 33.9377V33.9674ZM12.2663 29.7437C12.4152 29.7437 12.5938 29.6842 12.6832 29.5653C13.1 29.0596 13.5466 28.554 13.9337 28.0186C14.1719 27.7211 14.0826 27.3939 13.7848 27.1262C13.5168 26.8883 13.1 26.918 12.832 27.1857C12.4152 27.6616 12.0281 28.1673 11.6113 28.6432C11.4326 28.8514 11.4327 29.0894 11.5518 29.3273C11.7006 29.595 11.9388 29.714 12.2365 29.7437H12.2663ZM20.9901 35.6926C21.139 35.6926 21.2879 35.6926 21.407 35.5736C21.794 35.2167 22.1216 34.83 22.3895 34.3541C22.5384 34.0864 22.4491 33.7889 22.1811 33.5807C21.9429 33.3725 21.6452 33.3428 21.3772 33.5212C20.9604 33.8484 20.6328 34.2648 20.3947 34.711C20.1565 35.1274 20.5138 35.6331 20.9901 35.6628V35.6926Z" fill="#030303"/>
</svg>
