<svg width="16" height="16" viewBox="0 0 16 16" fill="none" xmlns="http://www.w3.org/2000/svg">
<g clip-path="url(#clip0_5011_86)">
<path d="M10.1205 4.36447C9.2887 4.36447 8.60444 5.04873 8.60444 5.88057C8.60444 6.71242 9.2887 7.39667 10.1205 7.39667C10.9524 7.39667 11.6366 6.71242 11.6366 5.88057C11.6366 5.04873 10.9524 4.36447 10.1205 4.36447ZM10.1205 6.79292C9.62412 6.79292 9.2082 6.39041 9.2082 5.88057C9.2082 5.37073 9.6107 4.96823 10.1205 4.96823C10.6304 4.96823 11.0329 5.37073 11.0329 5.88057C11.0329 6.39041 10.6304 6.79292 10.1205 6.79292ZM15.2592 2.24462C15.2592 1.41277 14.5749 0.728516 13.7431 0.728516C10.7511 0.809017 8.02752 2.27145 5.81374 4.96823C4.84773 4.96823 3.89514 5.20973 3.03646 5.63907C1.64111 6.35016 0.742188 7.86626 0.742188 9.51653V9.82512H3.77439C4.41839 9.82512 5.03557 10.08 5.49174 10.5362C5.94791 10.9924 6.20283 11.5961 6.20283 12.2536V15.2858H6.51142C8.16169 15.2858 9.67779 14.3868 10.3755 12.9915C10.8048 12.1328 11.0329 11.1802 11.0463 10.2142C13.7431 8.00043 15.1921 5.2634 15.286 2.27145L15.2592 2.24462ZM3.3048 6.18916C3.93539 5.88057 4.61965 5.67932 5.31732 5.61224C5.26365 5.69274 5.19657 5.77324 5.1429 5.85374C4.20373 7.16859 3.50605 8.68469 3.27797 9.20794H1.35936C1.45328 7.90651 2.20462 6.73925 3.3048 6.18916ZM9.81195 12.6963C9.26187 13.7965 8.0946 14.5478 6.79317 14.6418V12.7366C7.31643 12.5085 8.84594 11.8108 10.1474 10.8716C10.2279 10.818 10.3084 10.7509 10.3889 10.6972C10.3218 11.3949 10.1205 12.0791 9.81195 12.7097V12.6963ZM9.79854 10.3752C8.71178 11.1534 7.42376 11.784 6.79317 12.0791C6.75292 11.3278 6.44433 10.6301 5.90766 10.0935C5.37099 9.55678 4.67331 9.24819 3.92197 9.20794C4.21714 8.56394 4.84773 7.28934 5.62591 6.20258C7.16884 4.04247 9.83879 1.45302 13.7431 1.34569C14.2395 1.34569 14.6554 1.74819 14.6554 2.24462C14.5481 6.16233 11.9452 8.83227 9.79854 10.3752ZM1.7887 12.0657C1.27886 12.5756 0.930023 14.4137 0.862939 14.7759L0.782438 15.2053L1.21178 15.1248C1.57403 15.0577 3.41213 14.7223 3.92197 14.199C4.20373 13.9172 4.36473 13.5282 4.36473 13.1257C4.36473 12.7231 4.20373 12.3475 3.92197 12.0523C3.34505 11.4754 2.35221 11.4754 1.7887 12.0523V12.0657ZM3.49263 13.7831C3.26455 14.0112 2.32537 14.2795 1.53378 14.4539C1.69478 13.6757 1.96312 12.7366 2.20462 12.4951C2.37904 12.3206 2.60712 12.2267 2.84863 12.2267C3.09013 12.2267 3.31822 12.3206 3.49263 12.4951C3.66705 12.6695 3.76097 12.8976 3.76097 13.1391C3.76097 13.3806 3.66705 13.6087 3.49263 13.7831Z" fill="black" stroke="black" stroke-width="0.35" stroke-miterlimit="10"/>
</g>
<defs>
<clipPath id="clip0_5011_86">
<rect width="15" height="15" fill="white" transform="translate(0.5 0.5)"/>
</clipPath>
</defs>
</svg>
