<svg width="169" height="16" viewBox="0 0 169 16" fill="none" xmlns="http://www.w3.org/2000/svg">
<g clip-path="url(#clip0_3353_30)">
<path d="M60.0049 1.43164C56.1458 1.43164 53.0156 4.37083 53.0156 7.99921C53.0156 11.6276 56.1458 14.5668 60.0049 14.5668C63.864 14.5668 66.9942 11.6276 66.9942 7.99921C66.9942 4.37083 63.864 1.43164 60.0049 1.43164ZM60.0049 11.5296C57.931 11.5296 56.2479 9.94853 56.2479 7.99921C56.2479 6.04988 57.931 4.4688 60.0049 4.4688C62.0788 4.4688 63.7619 6.04988 63.7619 7.99921C63.7619 9.94853 62.0788 11.5296 60.0049 11.5296Z" fill="white"/>
<path d="M78.2234 9.75649L74.7482 1.68555H71.375L76.8256 14.3139H79.6213L85.0684 1.68555H81.6987L78.2234 9.75649Z" fill="white"/>
<path d="M42.7694 9.09433L36.0195 1.68555H33.2344V14.3139H36.3681V7.16865L43.0863 14.3139H45.9031V1.68555H42.7694V9.09433Z" fill="white"/>
<path d="M163.576 1.68555H160.741L155.305 14.3139H158.681L162.157 6.24636L165.628 14.3139H169.002L163.576 1.68555Z" fill="white"/>
<path d="M148.68 3.30717C147.444 2.25987 145.8 1.68555 144.043 1.68555H137.828V14.3173H144.124C145.846 14.3173 147.462 13.7599 148.673 12.7531C150.071 11.5943 150.842 9.92541 150.842 8.05379C150.842 6.18217 150.074 4.4896 148.676 3.31055L148.68 3.30717ZM144.127 11.4187H140.965V4.57744H144.046C146.131 4.57744 147.645 6.0369 147.645 8.04703C147.645 10.2599 145.874 11.4187 144.127 11.4187Z" fill="white"/>
<path d="M129.418 1.68555H126.281V14.3173H129.418V1.68555Z" fill="white"/>
<path d="M94.2881 1.68555L88.8516 14.3139H92.2283L95.7035 6.24636L99.1753 14.3139H102.548L97.1225 1.68555H94.2881Z" fill="white"/>
<path d="M113.18 9.75649L109.705 1.68555H106.328L111.779 14.3139H114.574L120.025 1.68555H116.652L113.18 9.75649Z" fill="white"/>
<path d="M0 4.25V11.75L6.26043 15.5L12.5244 11.75L6.26043 8L12.5244 4.25L6.26043 0.5L0 4.25Z" fill="white"/>
<path d="M12.5234 4.25L18.7839 8L25.0478 4.25L18.7839 0.5L12.5234 4.25Z" fill="white"/>
</g>
<defs>
<clipPath id="clip0_3353_30">
<rect width="169" height="15" fill="white" transform="translate(0 0.5)"/>
</clipPath>
</defs>
</svg>
