<svg width="1196" height="121" viewBox="0 0 1196 121" fill="none" xmlns="http://www.w3.org/2000/svg">
<g clip-path="url(#clip0_3460_2330)">
<path d="M235.868 0.263672C201.872 0.263672 174.297 27.1086 174.297 60.2482C174.297 93.3879 201.872 120.233 235.868 120.233C269.864 120.233 297.439 93.3879 297.439 60.2482C297.439 27.1086 269.864 0.263672 235.868 0.263672ZM235.868 92.493C217.598 92.493 202.772 78.0523 202.772 60.2482C202.772 42.4442 217.598 28.0035 235.868 28.0035C254.138 28.0035 268.964 42.4442 268.964 60.2482C268.964 78.0523 254.138 92.493 235.868 92.493Z" fill="black"/>
<path d="M396.346 76.2937L365.731 2.57812H335.984L384.001 117.95H408.629L456.645 2.57812H426.93L396.346 76.2937Z" fill="black"/>
<path d="M83.9973 70.2768L24.5664 2.57812H0V117.95H27.6372V52.6578L86.82 117.95H111.635V2.57812H83.9973V70.2768Z" fill="black"/>
<path d="M1148.21 2.57812H1123.24L1075.38 117.95H1105.09L1135.71 44.2341L1166.32 117.95H1196L1148.21 2.57812Z" fill="black"/>
<path d="M1017.02 17.3891C1006.13 7.82369 991.647 2.57812 976.169 2.57812H921.422V117.95H976.882C992.05 117.95 1006.29 112.858 1016.96 103.663C1029.27 93.0795 1036.07 77.8366 1036.07 60.7422C1036.07 43.6478 1029.3 28.1888 1016.99 17.42L1017.02 17.3891ZM976.913 91.5059H949.059V29.0219H976.2C994.563 29.0219 1007.9 42.3518 1007.9 60.7113C1007.9 80.9222 992.299 91.5059 976.913 91.5059Z" fill="black"/>
<path d="M847.293 2.57812H819.656V117.95H847.293V2.57812Z" fill="black"/>
<path d="M537.83 2.57812L489.969 117.95H519.715L550.299 44.2341L580.914 117.95H610.63L562.799 2.57812H537.83Z" fill="black"/>
<path d="M704.268 76.2937L673.684 2.57812H643.938L691.954 117.95H716.582L764.567 2.57812H734.883L704.268 76.2937Z" fill="black"/>
</g>
<defs>
<clipPath id="clip0_3460_2330">
<rect width="1196" height="120" fill="white" transform="translate(0 0.263672)"/>
</clipPath>
</defs>
</svg>
