<svg width="24" height="24" viewBox="0 0 24 24" fill="none" xmlns="http://www.w3.org/2000/svg">
<g clip-path="url(#clip0_3460_2488)">
<path fill-rule="evenodd" clip-rule="evenodd" d="M21.3333 0H2.66667C1.2 0 0 1.2 0 2.66667V21.3333C0 22.8 1.2 24 2.66667 24H21.3333C22.8 24 24 22.8 24 21.3333V2.66667C24 1.2 22.8 0 21.3333 0ZM7.96 18.5867C7.96 18.92 7.69333 19.1867 7.36 19.1867H5.56C5.22667 19.1867 4.96 18.92 4.96 18.5867V10.2C4.96 9.86667 5.22667 9.6 5.56 9.6H7.36C7.69333 9.6 7.96 9.86667 7.96 10.2V18.5867ZM6.46667 8.41333C5.48 8.41333 4.66667 7.61333 4.66667 6.61333C4.66667 5.61333 5.46667 4.81333 6.46667 4.81333C7.46667 4.81333 8.26667 5.61333 8.26667 6.61333C8.26667 7.61333 7.46667 8.41333 6.46667 8.41333ZM19.3333 18.5867C19.3333 18.92 19.0667 19.1867 18.7333 19.1867H16.9333C16.6 19.1867 16.3333 18.92 16.3333 18.5867V14.0933C16.3333 13.1067 15.5333 12.2933 14.5333 12.2933C13.5333 12.2933 12.7333 13.0933 12.7333 14.0933V18.5867C12.7333 18.92 12.4667 19.1867 12.1333 19.1867H10.3333C10 19.1867 9.73333 18.92 9.73333 18.5867V10.2C9.73333 9.86667 10 9.6 10.3333 9.6H12.1333C12.4667 9.6 12.7333 9.86667 12.7333 10.2V10.92C13.4667 9.81333 14.7467 9.2 16.0667 9.32C17.96 9.54667 19.36 11.1733 19.32 13.08V18.5867H19.3333Z" fill="white"/>
</g>
<defs>
<clipPath id="clip0_3460_2488">
<rect width="24" height="24" fill="white"/>
</clipPath>
</defs>
</svg>
