<svg width="41" height="47" viewBox="0 0 41 47" fill="none" xmlns="http://www.w3.org/2000/svg">
<g clip-path="url(#clip0_3353_240)">
<path d="M18.0938 46.3813C30.4154 46.3813 40.4004 36.136 40.4004 23.4931C40.4004 10.8502 30.4154 0.617188 18.0938 0.617188" stroke="black" stroke-miterlimit="10"/>
<path d="M10.6348 33.8005C16.1759 33.8005 20.668 29.1913 20.668 23.5057C20.668 17.8201 16.1759 13.2109 10.6348 13.2109C5.09358 13.2109 0.601562 17.8201 0.601562 23.5057C0.601562 29.1913 5.09358 33.8005 10.6348 33.8005Z" fill="#F4F4F4" stroke="black" stroke-miterlimit="10"/>
<path d="M25.5488 33.8005C31.09 33.8005 35.582 29.1913 35.582 23.5057C35.582 17.8201 31.09 13.2109 25.5488 13.2109C20.0076 13.2109 15.5156 17.8201 15.5156 23.5057C15.5156 29.1913 20.0076 33.8005 25.5488 33.8005Z" fill="#F4F4F4" stroke="black" stroke-miterlimit="10"/>
<path d="M15.5156 23.5062C15.5156 26.1509 16.4912 28.5609 18.0932 30.3776C19.6951 28.5485 20.6707 26.1509 20.6707 23.5062C20.6707 20.8614 19.6951 18.4515 18.0932 16.6348C16.4912 18.4638 15.5156 20.8614 15.5156 23.5062Z" fill="#FFDB43" stroke="black" stroke-miterlimit="10"/>
</g>
<defs>
<clipPath id="clip0_3353_240">
<rect width="41" height="47" fill="white"/>
</clipPath>
</defs>
</svg>
