<svg width="49" height="47" viewBox="0 0 49 47" fill="none" xmlns="http://www.w3.org/2000/svg">
<g clip-path="url(#clip0_3353_203)">
<path d="M39.3163 46.4029C44.3235 46.4029 48.3826 42.3974 48.3826 37.4563C48.3826 32.5153 44.3235 28.5098 39.3163 28.5098C34.3091 28.5098 30.25 32.5153 30.25 37.4563C30.25 42.3974 34.3091 46.4029 39.3163 46.4029Z" fill="white" stroke="black" stroke-miterlimit="10"/>
<path d="M24.6444 46.4029C29.6516 46.4029 33.7107 42.3974 33.7107 37.4563C33.7107 32.5153 29.6516 28.5098 24.6444 28.5098C19.6372 28.5098 15.5781 32.5153 15.5781 37.4563C15.5781 42.3974 19.6372 46.4029 24.6444 46.4029Z" fill="#F4F4F4" stroke="black" stroke-miterlimit="10"/>
<path d="M9.95692 46.4029C14.9641 46.4029 19.0232 42.3974 19.0232 37.4563C19.0232 32.5153 14.9641 28.5098 9.95692 28.5098C4.94974 28.5098 0.890625 32.5153 0.890625 37.4563C0.890625 42.3974 4.94974 46.4029 9.95692 46.4029Z" fill="#F4F4F4" stroke="black" stroke-miterlimit="10"/>
<path d="M9.0663 17.8932C14.0735 17.8932 18.1326 13.8876 18.1326 8.94658C18.1326 4.00552 14.0735 0 9.0663 0C4.05912 0 0 4.00552 0 8.94658C0 13.8876 4.05912 17.8932 9.0663 17.8932Z" fill="#FFDB43"/>
<path d="M24.6479 25.9872V8.94727H19.7812" stroke="black" stroke-miterlimit="10"/>
</g>
<defs>
<clipPath id="clip0_3353_203">
<rect width="49" height="47" fill="white"/>
</clipPath>
</defs>
</svg>
